<svg width="40" height="40" viewBox="0 0 40 40" fill="none" xmlns="http://www.w3.org/2000/svg">
<path fill-rule="evenodd" clip-rule="evenodd" d="M12.4416 1.77663C14.3971 1.68699 15.0205 1.66663 20 1.66663C24.9805 1.66663 25.6028 1.68801 27.5573 1.77663C29.5098 1.86524 30.8432 2.17589 32.0093 2.62913C33.2325 3.08964 34.3405 3.81119 35.2563 4.74358C36.1888 5.65929 36.9105 6.76739 37.3708 7.99061C37.824 9.15681 38.1337 10.4901 38.2233 12.4415C38.313 14.3971 38.3333 15.0204 38.3333 20C38.3333 24.9795 38.312 25.6028 38.2233 27.5585C38.1347 29.5098 37.824 30.8431 37.3708 32.0093C36.9023 33.2143 36.2748 34.2378 35.2563 35.2563C34.3407 36.1888 33.2325 36.9105 32.0093 37.3708C30.8432 37.824 29.5098 38.1336 27.5585 38.2233C25.6028 38.313 24.9795 38.3333 20 38.3333C15.0205 38.3333 14.3971 38.312 12.4416 38.2233C10.4901 38.1346 9.15685 37.824 7.99065 37.3708C6.78573 36.9023 5.76213 36.2748 4.74362 35.2563C3.81107 34.3406 3.08947 33.2325 2.62917 32.0093C2.17593 30.8431 1.8663 29.5098 1.77667 27.5585C1.68703 25.6028 1.66667 24.9805 1.66667 20C1.66667 15.0194 1.68805 14.3971 1.77667 12.4426C1.86528 10.4901 2.17593 9.15681 2.62917 7.99061C3.08968 6.76748 3.81123 5.65943 4.74362 4.74358C5.65932 3.81103 6.76742 3.08943 7.99065 2.62913C9.15685 2.17589 10.4901 1.86626 12.4416 1.77663ZM27.4087 5.07663C25.4755 4.98903 24.895 4.96968 20 4.96968C15.105 4.96968 14.5244 4.98903 12.5913 5.07663C10.8038 5.15811 9.83315 5.45653 9.1874 5.70811C8.33185 6.04014 7.72073 6.43736 7.07907 7.07903C6.43843 7.72069 6.04018 8.33181 5.70815 9.18736C5.45657 9.83311 5.15815 10.8038 5.07667 12.5913C4.98907 14.5244 4.96972 15.105 4.96972 20C4.96972 24.895 4.98907 25.4755 5.07667 27.4086C5.15815 29.1961 5.45657 30.1668 5.70815 30.8126C6.00185 31.609 6.47032 32.3293 7.07907 32.921C7.67057 33.5296 8.39102 33.9981 9.1874 34.2918C9.83315 34.5435 10.8038 34.8418 12.5913 34.9233C14.5244 35.011 15.104 35.0303 20 35.0303C24.896 35.0303 25.4755 35.011 27.4087 34.9233C29.1962 34.8418 30.1668 34.5435 30.8127 34.2918C31.6682 33.9598 32.2793 33.5626 32.921 32.921C33.5297 32.3295 33.9982 31.609 34.2918 30.8126C34.5435 30.1668 34.8418 29.1961 34.9233 27.4086C35.011 25.4755 35.0303 24.895 35.0303 20C35.0303 15.105 35.011 14.5244 34.9233 12.5913C34.8418 10.8038 34.5435 9.83311 34.2918 9.18736C33.9598 8.33181 33.5627 7.72069 32.921 7.07903C32.2793 6.43839 31.6682 6.04014 30.8127 5.70811C30.1668 5.45653 29.1962 5.15811 27.4087 5.07663ZM17.6592 25.6515C18.4013 25.959 19.1967 26.1171 20 26.1171C21.6225 26.1171 23.1783 25.4726 24.3255 24.3255C25.4728 23.1783 26.1173 21.6223 26.1173 20C26.1173 18.3776 25.4728 16.8216 24.3255 15.6744C23.1783 14.5272 21.6225 13.8827 20 13.8827C19.1967 13.8827 18.4013 14.041 17.6592 14.3484C16.9168 14.6558 16.2425 15.1064 15.6745 15.6744C15.1065 16.2425 14.6559 16.9168 14.3485 17.659C14.041 18.4011 13.8828 19.1966 13.8828 20C13.8828 20.8033 14.041 21.5988 14.3485 22.341C14.6559 23.0831 15.1065 23.7575 15.6745 24.3255C16.2425 24.8935 16.9168 25.3441 17.6592 25.6515ZM13.3367 13.3366C15.104 11.5694 17.5008 10.5766 20 10.5766C22.4993 10.5766 24.8962 11.5694 26.6633 13.3366C28.4305 15.1039 29.4233 17.5008 29.4233 20C29.4233 22.4991 28.4305 24.896 26.6633 26.6633C24.8962 28.4305 22.4993 29.4233 20 29.4233C17.5008 29.4233 15.104 28.4305 13.3367 26.6633C11.5695 24.896 10.5767 22.4991 10.5767 20C10.5767 17.5008 11.5695 15.1039 13.3367 13.3366ZM31.5128 11.9806C31.9305 11.5628 32.1652 10.9963 32.1652 10.4055C32.1652 9.81473 31.9305 9.24816 31.5128 8.83042C31.095 8.41269 30.5285 8.17801 29.9377 8.17801C29.347 8.17801 28.7803 8.41269 28.3627 8.83042C27.9448 9.24816 27.7102 9.81473 27.7102 10.4055C27.7102 10.9963 27.9448 11.5628 28.3627 11.9806C28.7803 12.3983 29.347 12.633 29.9377 12.633C30.5285 12.633 31.095 12.3983 31.5128 11.9806Z" fill="white"/>
</svg>
